<svg width="24" height="24" viewBox="0 0 24 24" fill="none" xmlns="http://www.w3.org/2000/svg">
<g clip-path="url(#clip0_2976_25953)">
<path d="M23.0901 9.03854L23.0721 9.03593L15.9911 8.00693L15.7309 7.96912L15.6146 7.73333L12.4611 1.34062C12.4138 1.26539 12.3487 1.20288 12.2715 1.15872C12.1897 1.11198 12.0972 1.0874 12.003 1.0874C11.9088 1.0874 11.8163 1.11198 11.7345 1.15872C11.6572 1.20291 11.5921 1.26546 11.5448 1.34075L8.38524 7.73366L8.26885 7.96916L8.0089 8.00693L0.927899 9.03593L0.927426 9.036C0.835095 9.04933 0.748335 9.08822 0.676953 9.14828L0.35505 8.76568L0.676952 9.14828C0.605571 9.20834 0.552414 9.28717 0.523492 9.37586C0.494571 9.46455 0.491037 9.55956 0.513292 9.65015C0.535504 9.74057 0.582521 9.82299 0.649045 9.88813C0.649172 9.88825 0.649299 9.88838 0.649426 9.8885L5.77394 14.882L5.96222 15.0655L5.91781 15.3246L4.70881 22.3776C4.70881 22.3776 4.70881 22.3776 4.70881 22.3776C4.69306 22.4695 4.70335 22.5641 4.7385 22.6505C4.77366 22.7369 4.8323 22.8117 4.90778 22.8665C4.98326 22.9214 5.07257 22.954 5.16562 22.9607C5.25866 22.9674 5.35174 22.948 5.43431 22.9046L5.43435 22.9046L11.7673 19.5756L12 19.4533L12.2326 19.5756L18.5656 22.9046L18.5657 22.9046C18.6483 22.948 18.7413 22.9674 18.8344 22.9607C18.9274 22.954 19.0167 22.9214 19.0922 22.8665C19.1677 22.8117 19.2263 22.7369 19.2615 22.6505C19.2966 22.564 19.3069 22.4695 19.2912 22.3776L18.0822 15.3246L18.0378 15.0655L18.226 14.882L23.3507 9.88838L23.0901 9.03854ZM23.0901 9.03854C23.1762 9.05406 23.2568 9.09193 23.3238 9.14848C23.3951 9.2086 23.4481 9.28745 23.4769 9.3761L23.9524 9.2216L23.4769 9.37611C23.5057 9.46477 23.5092 9.55973 23.4869 9.65025C23.4646 9.74061 23.4176 9.82296 23.351 9.88803L23.0901 9.03854Z" stroke="none"/>
</g>
<defs>
<clipPath id="clip0_2976_25953">
<rect width="24" height="24" fill="white"/>
</clipPath>
</defs>
</svg>
